# xmcd CD database file
#
# Track frame offsets:
#	150
#	14713
#	26424
#	38561
#	57147
#	69304
#	81868
#	95750
#	109526
#	122822
#	142930
#
# Disc length: 2080 seconds
#
# Revision: 2
# Processed by: cddbd v1.5.2PL0 Copyright (c) Steve Scherf et al.
# Submitted via: CDex 1.40Beta8
#
DISCID=89081e0b
DTITLE=Various Artist - NFL Country
DYEAR=1998
DGENRE=Country
TTITLE0=Do Right (By Me) - Bryan White and Esera Tuaolo
TTITLE1=Brinks Truck - Randy Travis and Michael Strahan
TTITLE2=She's In Dallas - Steve Wariner and Scott Galbraith
TTITLE3=I'm A Survivor - Jodee Messina and Brad Johnson
TTITLE4=I Can't Live With Myself - Mark Wills and Rick Tuten
TTITLE5=All It Takes Is All You've Got - Michael Preston and Howard Cross
TTITLE6=Whatever It Takes - Kenney Chesney and Peyton Manning
TTITLE7=Big Doggin' Around - Neal McCoy and Coach Joe Avezzano
TTITLE8=Nothin' About Nothin' - Mark Nesler and Chad Cascadden
TTITLE9=The Look Of A Woman In Love - Kevin Sharp and Ryan Leaf
TTITLE10=We're All In This Together - Chidi Ahanotu, Coach Joe Avezzano, Andre Hastings, William Henderson, Esera Tuaolo, Rick Tuten, Kenny Chesney, Linda Davis, Monty Holmes, Mila Mason, Jo Dee Messina, Mark Nesler, Michael Peterson, Daryl Singletary, Ta
EXTD=YEAR: 1998 ID3G: 2
EXTT0=
EXTT1=
EXTT2=
EXTT3=
EXTT4=
EXTT5=
EXTT6=
EXTT7=
EXTT8=
EXTT9=
EXTT10=
PLAYORDER=
